<svg width="28" height="28" viewBox="0 0 28 28" fill="none" xmlns="http://www.w3.org/2000/svg">
<path d="M18.3851 15.539C18.2995 15.6143 18.2358 15.7113 18.2009 15.8198C18.1659 15.9284 18.161 16.0443 18.1867 16.1554L19.2429 20.7289C19.2709 20.8483 19.263 20.9733 19.2204 21.0883C19.1777 21.2034 19.1022 21.3033 19.0031 21.3757C18.9041 21.4481 18.786 21.4897 18.6634 21.4954C18.5409 21.5011 18.4194 21.4706 18.314 21.4078L14.3218 18.9859C14.2248 18.9269 14.1135 18.8957 14 18.8957C13.8864 18.8957 13.7751 18.9269 13.6781 18.9859L9.68591 21.4078C9.58058 21.4706 9.45907 21.5011 9.33654 21.4954C9.214 21.4897 9.09585 21.4481 8.99682 21.3757C8.89778 21.3033 8.82223 21.2034 8.77959 21.0883C8.73695 20.9733 8.72909 20.8483 8.75701 20.7289L9.81326 16.1554C9.83893 16.0443 9.83404 15.9284 9.7991 15.8198C9.76416 15.7113 9.70048 15.6143 9.61482 15.539L6.0906 12.4648C5.99638 12.3847 5.92803 12.2785 5.8942 12.1596C5.86038 12.0406 5.86259 11.9143 5.90056 11.7966C5.93853 11.679 6.01056 11.5752 6.10752 11.4985C6.20449 11.4217 6.32203 11.3755 6.44529 11.3656L11.0906 10.964C11.2039 10.9539 11.3124 10.9131 11.4042 10.8459C11.496 10.7787 11.5678 10.6877 11.6117 10.5828L13.4265 6.25776C13.475 6.14594 13.5551 6.05074 13.657 5.98386C13.7589 5.91698 13.8781 5.88135 14 5.88135C14.1218 5.88135 14.2411 5.91698 14.3429 5.98386C14.4448 6.05074 14.5249 6.14594 14.5734 6.25776L16.3883 10.5828C16.4322 10.6877 16.5039 10.7787 16.5958 10.8459C16.6876 10.9131 16.796 10.9539 16.9094 10.964L21.5547 11.3656C21.6779 11.3755 21.7955 11.4217 21.8924 11.4985C21.9894 11.5752 22.0614 11.679 22.0994 11.7966C22.1374 11.9143 22.1396 12.0406 22.1057 12.1596C22.0719 12.2785 22.0036 12.3847 21.9094 12.4648L18.3851 15.539Z" fill="var(--icon-color)" fill-opacity="0.1"/>
<path d="M22.6875 11.6007C22.6118 11.3675 22.4692 11.1616 22.2773 11.0088C22.0855 10.856 21.8529 10.763 21.6086 10.7414L16.9688 10.3414L15.15 6.01637C15.0553 5.78943 14.8956 5.59558 14.691 5.45923C14.4863 5.32288 14.2459 5.25012 14 5.25012C13.7541 5.25012 13.5137 5.32288 13.3091 5.45923C13.1044 5.59558 12.9447 5.78943 12.85 6.01637L11.0367 10.3414L6.39142 10.7437C6.14614 10.7643 5.9124 10.8569 5.71952 11.0098C5.52663 11.1627 5.38319 11.3692 5.30718 11.6033C5.23117 11.8375 5.22598 12.0888 5.29225 12.3259C5.35852 12.5629 5.49331 12.7751 5.6797 12.9359L9.20392 16.0156L8.14767 20.589C8.09182 20.8284 8.10776 21.0788 8.19349 21.3092C8.27923 21.5395 8.43095 21.7394 8.6297 21.884C8.82845 22.0285 9.0654 22.1113 9.31093 22.1219C9.55647 22.1326 9.79968 22.0706 10.0102 21.9437L13.9945 19.5218L17.9875 21.9437C18.198 22.0706 18.4412 22.1326 18.6868 22.1219C18.9323 22.1113 19.1692 22.0285 19.368 21.884C19.5667 21.7394 19.7185 21.5395 19.8042 21.3092C19.8899 21.0788 19.9059 20.8284 19.85 20.589L18.7945 16.0109L22.318 12.9359C22.5044 12.7746 22.6389 12.5618 22.7046 12.3242C22.7704 12.0866 22.7644 11.8349 22.6875 11.6007ZM21.4985 11.9914L17.975 15.0664C17.8035 15.2155 17.676 15.4086 17.606 15.6249C17.5361 15.8412 17.5265 16.0724 17.5781 16.2937L18.6367 20.875L14.6469 18.4531C14.4522 18.3345 14.2287 18.2718 14.0008 18.2718C13.7729 18.2718 13.5494 18.3345 13.3547 18.4531L9.37033 20.875L10.4219 16.2968C10.4736 16.0755 10.4639 15.8443 10.394 15.628C10.3241 15.4118 10.1965 15.2187 10.025 15.0695L6.50002 11.9961C6.49973 11.9937 6.49973 11.9914 6.50002 11.989L11.1438 11.5875C11.3705 11.5675 11.5874 11.486 11.7712 11.3517C11.955 11.2175 12.0987 11.0356 12.1867 10.8257L14 6.50622L15.8125 10.8257C15.9005 11.0356 16.0442 11.2175 16.228 11.3517C16.4118 11.486 16.6288 11.5675 16.8555 11.5875L21.5 11.989C21.5 11.989 21.5 11.9937 21.5 11.9945L21.4985 11.9914Z" fill="var(--icon-color)"/>
</svg>
